<svg xmlns="http://www.w3.org/2000/svg" width="10" height="11" viewBox="0 0 10 11">
    <g fill="#242424" fill-rule="nonzero">
        <path d="M4.96 6h.077c.703-.012 1.27-.249 1.69-.703.924-1.001.77-2.717.753-2.88C7.42 1.187 6.816.6 6.318.325A2.749 2.749 0 0 0 5.028 0h-.041c-.266 0-.789.042-1.29.316-.504.274-1.117.862-1.177 2.1-.017.164-.17 1.88.752 2.88.418.455.986.692 1.688.704zm-1.8-3.526l.002-.018C3.242.802 4.462.625 4.984.625h.03c.647.014 1.747.267 1.821 1.83 0 .008 0 .015.003.02.002.015.17 1.583-.592 2.409-.303.327-.705.489-1.235.493h-.024c-.528-.004-.933-.166-1.233-.493-.76-.821-.597-2.396-.594-2.41z"/>
        <path d="M9.5 8.78v-.007c0-.018-.003-.035-.003-.056-.014-.442-.044-1.477-1.048-1.808l-.023-.007a6.775 6.775 0 0 1-1.92-.845.319.319 0 0 0-.434.074.295.295 0 0 0 .076.42c.04.027.96.646 2.112.932.539.186.599.743.615 1.252a3.925 3.925 0 0 1-.046.747c-.375.206-1.844.917-4.078.917-2.225 0-3.703-.714-4.08-.92a3.716 3.716 0 0 1-.048-.69l.002-.056c.016-.51.076-1.066.615-1.252 1.152-.286 2.073-.907 2.112-.932a.295.295 0 0 0 .076-.42.319.319 0 0 0-.435-.074 6.701 6.701 0 0 1-1.942.852C.047 7.24.017 8.275.003 8.715c0 .02 0 .038-.002.056v.007c-.003.116-.005.713.118 1.013a.29.29 0 0 0 .12.14C.309 9.976 1.97 11 4.753 11 7.536 11 9.2 9.974 9.268 9.931a.302.302 0 0 0 .12-.14c.116-.298.114-.895.111-1.01z"/>
    </g>
</svg>
