<svg xmlns="http://www.w3.org/2000/svg" width="15" height="18" viewBox="0 0 15 18">
    <g fill="#444" fill-rule="nonzero">
        <path d="M7.937 10h.122c1.124-.02 2.034-.415 2.705-1.172 1.477-1.668 1.231-4.527 1.205-4.8-.096-2.049-1.063-3.029-1.861-3.486C9.513.2 8.819.015 8.044 0H7.98c-.426 0-1.262.07-2.064.527-.806.457-1.788 1.437-1.884 3.5-.026.274-.272 3.133 1.205 4.8.667.758 1.577 1.154 2.7 1.173zM5.056 4.124c0-.012.004-.023.004-.031.126-2.756 2.079-3.051 2.915-3.051h.046c1.036.023 2.797.445 2.916 3.051 0 .012 0 .023.003.03.004.028.273 2.641-.947 4.017-.483.546-1.128.815-1.976.822h-.039c-.843-.007-1.491-.276-1.97-.822-1.217-1.368-.956-3.993-.952-4.016z"/>
        <path d="M14.999 14.448v-.01c0-.03-.004-.058-.004-.09-.022-.708-.07-2.364-1.654-2.894l-.036-.01c-1.647-.412-3.017-1.342-3.031-1.353a.499.499 0 0 0-.687.118.476.476 0 0 0 .12.673c.063.043 1.516 1.034 3.335 1.491.85.297.945 1.188.971 2.004 0 .032 0 .06.004.089.003.322-.019.82-.077 1.105-.592.33-2.91 1.467-6.438 1.467-3.513 0-5.847-1.141-6.442-1.47-.058-.286-.084-.784-.077-1.106 0-.028.004-.057.004-.089.026-.816.12-1.706.971-2.003 1.819-.458 3.272-1.452 3.334-1.492a.476.476 0 0 0 .121-.672.499.499 0 0 0-.687-.118c-.014.01-1.376.94-3.03 1.352-.015.003-.026.007-.037.01-1.585.534-1.632 2.19-1.654 2.894 0 .033 0 .061-.004.09v.01c-.004.187-.007 1.142.186 1.62a.461.461 0 0 0 .19.226c.11.072 2.735 1.71 7.128 1.71 4.394 0 7.02-1.642 7.129-1.71a.481.481 0 0 0 .19-.225c.182-.476.179-1.43.175-1.617z"/>
    </g>
</svg>
