<svg xmlns="http://www.w3.org/2000/svg" width="12" height="18" viewBox="0 0 12 18">
    <g fill="#444" fill-rule="nonzero">
        <path d="M10.955 4.828s-.098-3.54-.102-3.583A.653.653 0 0 0 10.45.71L9.417.303a.624.624 0 0 0-.488.011.64.64 0 0 0-.337.359l-.708 1.855a4.807 4.807 0 0 0-.328-.068v-.7C7.556.79 6.779 0 5.824 0 4.868 0 4.09.79 4.09 1.76v.7c-.11.019-.22.042-.329.068L3.054.673a.64.64 0 0 0-.337-.359.624.624 0 0 0-.488-.011L1.197.71a.638.638 0 0 0-.403.528C.789 1.283.691 4.83.691 4.83A5.02 5.02 0 0 0 0 7.38v9.528C0 17.51.482 18 1.074 18h9.499c.592 0 1.074-.49 1.074-1.092V7.38a5.02 5.02 0 0 0-.692-2.552zm-.591-.808a4.991 4.991 0 0 0-.357-.359l.321-.843.036 1.202zM9.12.88a.07.07 0 0 1 .091-.04l1.032.406a.07.07 0 0 1 .04.038c.005.012.01.032 0 .055l-.743 1.947a4.876 4.876 0 0 0-1.113-.592L9.121.881zM5.824.576c.579 0 1.06.432 1.15.996a1.704 1.704 0 0 0-2.3-.003c.09-.562.571-.993 1.15-.993zm1.059 1.817c-.049-.002-2.07-.002-2.119 0 .057-.127.136-.244.236-.345.22-.224.512-.347.824-.347.463 0 .873.281 1.059.692zm-5.52-1.108a.07.07 0 0 1 .039-.038L2.434.84a.07.07 0 0 1 .091.041l.693 1.815c-.398.149-.771.348-1.113.591L1.362 1.34a.071.071 0 0 1 0-.055zm-.045 1.533l.322.844a5.004 5.004 0 0 0-.357.359l.035-1.203zm9.762 14.09a.512.512 0 0 1-.507.516H1.074a.512.512 0 0 1-.507-.516V7.38c0-2.434 1.948-4.413 4.343-4.413h1.827c2.395 0 4.343 1.98 4.343 4.413v9.528z"/>
        <path d="M2.87 8.47c-.415 0-.752.395-.752.88v5.654c0 .484.337.878.751.878h6.968c.414 0 .751-.394.751-.878V9.349c0-.484-.337-.878-.751-.878H2.869zm6.967 6.812H2.869c-.131 0-.238-.125-.238-.278v-3.772h6.463v.682h.514v-.682h.467v3.772c0 .153-.107.278-.238.278zm.238-5.933v1.283H2.63V9.349c0-.153.107-.278.238-.278h6.968c.13 0 .238.125.238.278zM7.412 4.235H4.235v2.118h3.177V4.235zm-.5 1.376H4.735v-.634H6.91v.634z"/>
    </g>
</svg>
