<svg xmlns="http://www.w3.org/2000/svg" width="11" height="17" viewBox="0 0 11 17">
    <g fill="#FFF" fill-rule="nonzero">
        <path d="M10.346 4.56s-.092-3.344-.096-3.384A.617.617 0 0 0 9.869.67L8.894.286a.59.59 0 0 0-.46.01.604.604 0 0 0-.319.34l-.669 1.752a4.54 4.54 0 0 0-.31-.065v-.66C7.136.745 6.402 0 5.5 0c-.902 0-1.636.746-1.636 1.662v.661c-.105.018-.208.04-.31.065L2.883.635a.604.604 0 0 0-.318-.338.59.59 0 0 0-.46-.01L1.13.67a.602.602 0 0 0-.38.5C.745 1.211.653 4.56.653 4.56A4.741 4.741 0 0 0 0 6.97v8.999C0 16.537.455 17 1.015 17h8.97c.56 0 1.015-.463 1.015-1.031v-9a4.74 4.74 0 0 0-.654-2.409zm-.558-.764a4.714 4.714 0 0 0-.337-.338l.304-.796.033 1.134zM8.614.832A.066.066 0 0 1 8.7.794l.975.384a.066.066 0 0 1 .037.036c.005.011.01.03.001.051l-.702 1.839a4.605 4.605 0 0 0-1.05-.558L8.613.832zM5.5.544c.547 0 1.002.408 1.086.94a1.61 1.61 0 0 0-2.172-.003C4.5.951 4.954.544 5.5.544zm1 1.716c-.045-.002-1.955-.002-2 0 .054-.12.128-.23.222-.326.208-.211.484-.327.778-.327.437 0 .825.265 1 .653zM1.287 1.214a.066.066 0 0 1 .037-.036l.975-.384a.066.066 0 0 1 .086.038l.654 1.714c-.375.14-.728.33-1.051.558l-.702-1.839a.067.067 0 0 1 .001-.051zm-.042 1.448l.304.796c-.118.107-.231.22-.338.34l.034-1.136zm9.22 13.307a.484.484 0 0 1-.48.487h-8.97a.484.484 0 0 1-.48-.487v-9c0-2.297 1.84-4.167 4.102-4.167h1.726c2.261 0 4.101 1.87 4.101 4.168v8.999z"/>
        <path d="M1.71 9c-.392 0-.71.372-.71.83v5.34c0 .458.318.83.71.83h6.58c.392 0 .71-.372.71-.83V9.83C9 9.372 8.682 9 8.29 9H1.71zm6.58 6.433H1.71c-.124 0-.225-.118-.225-.263v-3.562h6.104v.645h.485v-.645h.441v3.562c0 .145-.1.263-.225.263zm.225-5.603v1.211h-7.03V9.83c0-.145.1-.263.225-.263h6.58c.124 0 .225.118.225.263zM7 4H4v2h3V4zm-.473 1.3H4.473v-.6h2.054v.6z"/>
    </g>
</svg>
