<svg xmlns="http://www.w3.org/2000/svg" width="13" height="13" viewBox="0 0 13 13">
    <g fill="#000" fill-rule="nonzero">
        <path d="M7.968 1.625h-1.31c-.088 0-.158.182-.158.406 0 .225.07.406.157.406h1.31c.088 0 .158-.181.158-.406 0-.224-.07-.406-.157-.406zM5.53 1.625H4.22c-.087 0-.157.182-.157.406 0 .225.07.406.157.406h1.31c.087 0 .157-.181.157-.406 0-.224-.07-.406-.157-.406zM7.968 3.25h-1.31c-.088 0-.158.182-.158.406 0 .225.07.406.157.406h1.31c.088 0 .158-.181.158-.406 0-.224-.07-.406-.157-.406zM5.53 3.25H4.22c-.087 0-.157.182-.157.406 0 .225.07.406.157.406h1.31c.087 0 .157-.181.157-.406 0-.224-.07-.406-.157-.406z"/>
        <path d="M7.968 4.063h-1.31c-.088 0-.158.181-.158.406 0 .224.07.406.157.406h1.31c.088 0 .158-.182.158-.406 0-.225-.07-.407-.157-.407zM5.53 4.063H4.22c-.087 0-.157.181-.157.406 0 .224.07.406.157.406h1.31c.087 0 .157-.182.157-.406 0-.225-.07-.407-.157-.407zM7.968 4.875h-1.31c-.088 0-.158.182-.158.406 0 .225.07.407.157.407h1.31c.088 0 .158-.182.158-.407 0-.224-.07-.406-.157-.406zM5.53 4.875H4.22c-.087 0-.157.182-.157.406 0 .225.07.407.157.407h1.31c.087 0 .157-.182.157-.407 0-.224-.07-.406-.157-.406zM7.968 6.5h-1.31c-.088 0-.158.182-.158.406 0 .225.07.407.157.407h1.31c.088 0 .158-.182.158-.407 0-.224-.07-.406-.157-.406zM5.53 6.5H4.22c-.087 0-.157.182-.157.406 0 .225.07.407.157.407h1.31c.087 0 .157-.182.157-.407 0-.224-.07-.406-.157-.406zM7.968 8.125h-1.31c-.088 0-.158.182-.158.406 0 .225.07.406.157.406h1.31c.088 0 .158-.181.158-.406 0-.224-.07-.406-.157-.406zM5.53 8.125H4.22c-.087 0-.157.182-.157.406 0 .225.07.406.157.406h1.31c.087 0 .157-.181.157-.406 0-.224-.07-.406-.157-.406z"/>
        <path d="M7.968 7.313h-1.31c-.088 0-.158.181-.158.406 0 .224.07.406.157.406h1.31c.088 0 .158-.182.158-.406 0-.225-.07-.407-.157-.407zM5.53 7.313H4.22c-.087 0-.157.181-.157.406 0 .224.07.406.157.406h1.31c.087 0 .157-.182.157-.406 0-.225-.07-.407-.157-.407z"/>
        <path d="M11.133 0H4.356A1.87 1.87 0 0 0 2.49 1.867v6.659a.207.207 0 1 0 .415 0V1.867c0-.8.652-1.452 1.452-1.452h6.777c.8 0 1.452.651 1.452 1.452v1.896l-.977-.427a.207.207 0 0 0-.166 0l-.931.407V1.867a.623.623 0 0 1 1.244 0v.83a.207.207 0 1 0 .415 0v-.83a1.038 1.038 0 0 0-2.074 0v9.266c0 .8-.652 1.452-1.452 1.452H1.867c-.8 0-1.452-.651-1.452-1.452V9.652l.977.426a.207.207 0 0 0 .166 0l1.185-.517 1.185.517a.207.207 0 0 0 .166 0l1.185-.517 1.184.517a.208.208 0 0 0 .166 0l.977-.426v1.481a1.038 1.038 0 0 0 2.075 0 .207.207 0 1 0-.415 0 .623.623 0 0 1-1.245 0v-.207h.623a.207.207 0 1 0 0-.415H8.02v-.692h.623a.207.207 0 1 0 0-.415H8.02v-.069a.207.207 0 0 0-.29-.19l-1.185.517-1.184-.517a.208.208 0 0 0-.166 0l-1.185.517-1.185-.517a.208.208 0 0 0-.166 0l-1.185.517L.29 9.145a.207.207 0 0 0-.29.19v1.798A1.87 1.87 0 0 0 1.867 13h6.777a1.87 1.87 0 0 0 1.867-1.867V4.196l1.014-.443 1.185.517a.207.207 0 0 0 .29-.19V1.867A1.87 1.87 0 0 0 11.133 0z"/>
    </g>
</svg>
