<svg xmlns="http://www.w3.org/2000/svg" width="45" height="45" viewBox="0 0 45 45">
    <path fill="#000" fill-rule="nonzero" d="M31.979 1.992l3.542 2.045-3.519 6.096-3.543-2.045 3.52-6.096zm11.03 11.03l-2.046-3.543-6.096 3.519 2.045 3.543 6.096-3.52zm-5.047 11.523H45v-4.09h-7.038v4.09zm-3.095 7.457l6.096 3.52 2.045-3.543-6.096-3.52-2.045 3.543zm-6.408 4.91l3.52 6.096 3.542-2.045-3.519-6.096-3.543 2.045zM20.455 45h4.09v-7.038h-4.09V45zM9.479 40.963l3.542 2.045 3.52-6.096-3.543-2.045-3.52 6.096zM8.088 28.459l-6.096 3.52 2.045 3.542 6.096-3.519-2.045-3.543zM0 24.545h7.038v-4.09H0v4.09zm10.133-11.547l-6.096-3.52-2.045 3.543 6.095 3.52 2.046-3.543zm-.654-8.96l3.519 6.095 3.543-2.046-3.52-6.095L9.48 4.037zm10.976 3h4.09V0h-4.09v7.038z"/>
</svg>
