<svg xmlns="http://www.w3.org/2000/svg" width="29" height="30" viewBox="0 0 29 30">
    <g fill="none" fill-rule="nonzero">
        <path fill="#FFF" d="M21 29h1v1h-1z"/>
        <path fill="#444" d="M17.163 21.715l.88-.474 3.794 7.044-.88.474zM5.368 14.703L6 14.01l-2.553-2.79v-1.55l1.92 2.098.633-.69-2.684-2.934-.003.004a.41.41 0 0 0-.63-.003L0 11.079l.632.69 1.921-2.098v1.55L0 14.011l.633.692 1.92-2.1v1.552L0 16.945l.633.69 1.92-2.098v1.55L0 19.878l.633.692 1.92-2.099V30h.894V18.47l1.92 2.099.633-.692-2.553-2.79v-1.55l1.92 2.099.633-.692-2.553-2.79v-1.55l1.92 2.099z"/>
        <path fill="#444" d="M28.33 15.9l.67-.678-2.701-2.74V10.96l2.032 2.06.669-.678-2.84-2.88-.003.004a.457.457 0 0 0-.667-.003l-2.84 2.88.67.678 2.032-2.06v1.522l-2.701 2.739.67.678 2.031-2.06v1.522l-2.701 2.74.67.678 2.031-2.06v4.6l-.994-2.124a.473.473 0 0 0-.426-.275H17.78V15.28l2.032 2.06.67-.678-2.702-2.74V12.4l2.032 2.06.67-.678-2.702-2.74V9.52l2.032 2.06.67-.678-2.702-2.74V6.64l2.032 2.06.67-.678-2.84-2.88-.004.004a.457.457 0 0 0-.666-.003l-2.84 2.88.67.678 2.032-2.06v1.522l-2.702 2.74.67.678 2.032-2.06v1.522l-2.702 2.739.67.678 2.032-2.06v1.522l-2.702 2.74.67.678 2.032-2.06v3.64h-6.627c-.133.002-.26.06-.348.162a.414.414 0 0 0-.07.096l-4.734 9.12a.483.483 0 0 0 .2.647.468.468 0 0 0 .219.055h14.2v-.96h-4.45l-4.233-8.16h12.643l3.811 8.16h-4.932V29h5.68a.477.477 0 0 0 .426-.685l-2.32-4.968V16.72l2.033 2.06.669-.679-2.701-2.739V13.84l2.032 2.06zM9.734 28.04H6.257l3.476-6.697v6.697zm4.422 0H10.68v-6.697l3.476 6.697zM10 0a.533.533 0 0 0-.377.91c.55.495.907 1.17 1.004 1.905a1.64 1.64 0 0 1-1.814 1.813l.002-.001A3.108 3.108 0 0 1 6.91 3.623.533.533 0 0 0 6 4a4 4 0 1 0 4-4zm2.642 5.279a2.933 2.933 0 0 1-5.28.001c.425.229.892.368 1.373.408.804.073 1.6-.211 2.175-.778a2.967 2.967 0 0 0 .37-3.55 2.933 2.933 0 0 1 1.362 3.919z"/>
    </g>
</svg>
