<svg xmlns="http://www.w3.org/2000/svg" width="20" height="20" viewBox="0 0 20 20">
    <g fill="none" fill-rule="nonzero">
        <path fill="#FFF" d="M0 0h19.988v19.988H0z"/>
        <path fill="#008349" d="M2.648 14.817A8.605 8.605 0 0 0 15.845 7.19c.172-.136 1.235-.988 1.496-1.536 0 0-.864.36-1.708.444h-.006s.002 0 .005-.003c.078-.052 1.166-.793 1.313-1.676 0 0-.61.326-1.465.611-.142.048-.29.094-.443.137a3.018 3.018 0 0 0-5.145 2.746c-.233-.01-3.782-.209-6.197-3.133 0 0-1.443 1.97.86 3.996 0 0-.7-.028-1.304-.389 0 0-.222 2.387 2.387 2.997 0 0-.514.195-1.332.056 0 0 .457 1.928 2.775 2.109 0 0-1.833 1.655-4.434 1.267h.001z"/>
    </g>
</svg>
