<svg xmlns="http://www.w3.org/2000/svg" width="20" height="20" viewBox="0 0 20 20">
    <g fill="#FFF" fill-rule="nonzero">
        <path d="M0 0v20h20V0H0zm16.681 13.273a1.75 1.75 0 0 1-1.497 1.36c-1.716.192-3.454.194-5.185.192-1.73.002-3.467 0-5.184-.191a1.748 1.748 0 0 1-1.496-1.361c-.242-1.048-.242-2.193-.242-3.273s.003-2.224.244-3.273a1.747 1.747 0 0 1 1.496-1.36c1.717-.192 3.455-.193 5.185-.192 1.73-.001 3.468 0 5.185.192.725.08 1.327.623 1.497 1.36.241 1.049.24 2.193.24 3.273s-.002 2.225-.243 3.273z"/>
        <path d="M8 12l4-1.994L8 8v4z"/>
    </g>
</svg>
